<svg xmlns="http://www.w3.org/2000/svg" viewBox="305.863281 305.863281 888 888" fill="none">
  <!-- If you re-export: delete white &lt;rect&gt; fills and use this viewBox so the mark stays transparent -->
  <path
    fill="#259afa"
    fill-rule="nonzero"
    d="M 783.085938 971.015625 L 588.816406 1165.285156 C 575.289062 1178.8125 553.097656 1178.871094 539.5 1165.414062 L 342.949219 970.886719 C 329.351562 957.433594 333.878906 946.421875 353.007812 946.421875 L 772.898438 946.421875 C 792.027344 946.421875 796.609375 957.492188 783.085938 971.015625 Z M 727.113281 553.589844 L 1147.003906 553.589844 C 1166.132812 553.589844 1170.660156 542.578125 1157.0625 529.121094 L 960.511719 334.597656 C 946.914062 321.140625 924.722656 321.199219 911.195312 334.722656 L 716.925781 528.996094 C 703.398438 542.523438 707.984375 553.589844 727.113281 553.589844 Z M 905.082031 872.707031 L 608.175781 1169.613281 C 594.648438 1183.140625 599.230469 1194.125 618.359375 1194.027344 L 894.894531 1192.59375 C 914.023438 1192.496094 929.675781 1176.761719 929.675781 1157.632812 L 929.675781 882.894531 C 929.675781 863.761719 918.609375 859.179688 905.082031 872.707031 Z M 594.933594 627.304688 L 891.839844 330.398438 C 905.367188 316.871094 900.78125 305.886719 881.652344 305.984375 L 605.117188 307.417969 C 585.988281 307.515625 570.335938 323.25 570.335938 342.378906 L 570.335938 617.117188 C 570.335938 636.246094 581.40625 640.832031 594.933594 627.304688 Z M 971.015625 716.925781 C 957.492188 703.398438 946.421875 707.984375 946.421875 727.113281 L 946.421875 1147.003906 C 946.421875 1166.132812 957.433594 1170.660156 970.890625 1157.0625 L 1165.414062 960.511719 C 1178.871094 946.914062 1178.8125 924.722656 1165.285156 911.195312 Z M 528.996094 783.085938 C 542.523438 796.609375 553.589844 792.027344 553.589844 772.898438 L 553.589844 353.007812 C 553.589844 333.878906 542.578125 329.351562 529.121094 342.945312 L 334.597656 539.5 C 321.140625 553.097656 321.199219 575.289062 334.726562 588.816406 Z M 1192.597656 605.117188 C 1192.496094 585.988281 1176.765625 570.335938 1157.632812 570.335938 L 882.894531 570.335938 C 863.765625 570.335938 859.179688 581.402344 872.707031 594.929688 L 1169.613281 891.839844 C 1183.140625 905.363281 1194.125 900.78125 1194.027344 881.652344 Z M 617.117188 929.675781 C 636.25 929.675781 640.832031 918.605469 627.304688 905.082031 L 330.398438 608.171875 C 316.871094 594.644531 305.886719 599.230469 305.984375 618.359375 L 307.417969 894.894531 C 307.515625 914.023438 323.25 929.675781 342.378906 929.675781 Z M 617.117188 929.675781"
  />
</svg>
